<svg width="50" height="50" viewBox="0 0 50 50" fill="none" xmlns="http://www.w3.org/2000/svg">
<g id="assignment_turned_in_24px">
<path id="icon/action/assignment_turned_in_24px" fill-rule="evenodd" clip-rule="evenodd" d="M39.5833 8.33342H30.875C30 5.91675 27.7083 4.16675 25 4.16675C22.2917 4.16675 20 5.91675 19.125 8.33342H10.4167C8.125 8.33342 6.25 10.2084 6.25 12.5001V41.6668C6.25 43.9584 8.125 45.8334 10.4167 45.8334H39.5833C41.875 45.8334 43.75 43.9584 43.75 41.6668V12.5001C43.75 10.2084 41.875 8.33342 39.5833 8.33342ZM25 8.33342C26.1458 8.33342 27.0833 9.27092 27.0833 10.4167C27.0833 11.5626 26.1458 12.5001 25 12.5001C23.8542 12.5001 22.9167 11.5626 22.9167 10.4167C22.9167 9.27092 23.8542 8.33342 25 8.33342ZM13.9591 30.6251L19.3549 36.021C20.1674 36.8335 21.5007 36.8335 22.2924 36.021L36.0216 22.2918C36.8341 21.4793 36.8341 20.1668 36.0216 19.3543C35.2091 18.5418 33.8966 18.5418 33.0841 19.3543L20.8341 31.6043L16.8966 27.6876C16.0841 26.8751 14.7716 26.8751 13.9591 27.6876C13.569 28.0769 13.3497 28.6053 13.3497 29.1564C13.3497 29.7075 13.569 30.2359 13.9591 30.6251Z" fill="#C4C4C4"/>
</g>
</svg>
