<svg width="50" height="50" viewBox="0 0 50 50" fill="none" xmlns="http://www.w3.org/2000/svg">
<g id="assignment_late_24px">
<path id="icon/action/assignment_late_24px" fill-rule="evenodd" clip-rule="evenodd" d="M30.875 8.33342H39.5833C41.875 8.33342 43.75 10.2084 43.75 12.5001V41.6668C43.75 43.9584 41.875 45.8334 39.5833 45.8334H10.4167C8.125 45.8334 6.25 43.9584 6.25 41.6668V12.5001C6.25 10.2084 8.125 8.33342 10.4167 8.33342H19.125C20 5.91675 22.2917 4.16675 25 4.16675C27.7083 4.16675 30 5.91675 30.875 8.33342ZM27.084 39.5834V35.4167H22.9173V39.5834H27.084ZM27.084 29.1667C27.084 30.3126 26.1465 31.2501 25.0007 31.2501C23.8548 31.2501 22.9173 30.3126 22.9173 29.1667V20.8334C22.9173 19.6876 23.8548 18.7501 25.0007 18.7501C26.1465 18.7501 27.084 19.6876 27.084 20.8334V29.1667ZM22.9173 10.4167C22.9173 11.5626 23.8548 12.5001 25.0007 12.5001C26.1465 12.5001 27.084 11.5626 27.084 10.4167C27.084 9.27092 26.1465 8.33342 25.0007 8.33342C23.8548 8.33342 22.9173 9.27092 22.9173 10.4167Z" fill="#C4C4C4"/>
</g>
</svg>
