<svg width="36" height="36" viewBox="0 0 36 36" fill="none" xmlns="http://www.w3.org/2000/svg">
<g id="report_24px">
<path id="icon/content/report_24px" fill-rule="evenodd" clip-rule="evenodd" d="M22.9878 4.5H13.0278C12.6378 4.5 12.2478 4.665 11.9778 4.935L4.94281 11.97C4.67281 12.24 4.50781 12.63 4.50781 13.02V22.965C4.50781 23.37 4.67281 23.745 4.94281 24.03L11.9628 31.05C12.2478 31.335 12.6378 31.5 13.0278 31.5H22.9728C23.3778 31.5 23.7528 31.335 24.0378 31.065L31.0578 24.045C31.3428 23.76 31.4928 23.385 31.4928 22.98V13.02C31.4928 12.615 31.3278 12.24 31.0578 11.955L24.0378 4.935C23.7678 4.665 23.3778 4.5 22.9878 4.5ZM18.0072 25.9499C16.9271 25.9499 16.0571 25.0799 16.0571 23.9999C16.0571 22.9199 16.9271 22.0499 18.0072 22.0499C19.0872 22.0499 19.9572 22.9199 19.9572 23.9999C19.9572 25.0799 19.0872 25.9499 18.0072 25.9499ZM16.508 18C16.508 18.825 17.183 19.5 18.008 19.5C18.833 19.5 19.508 18.825 19.508 18V12C19.508 11.175 18.833 10.5 18.008 10.5C17.183 10.5 16.508 11.175 16.508 12V18Z" fill="#C4C4C4"/>
</g>
</svg>
