<svg width="50" height="50" viewBox="0 0 50 50" fill="none" xmlns="http://www.w3.org/2000/svg">
<g id="assessment_24px">
<path id="icon/action/assessment_24px" fill-rule="evenodd" clip-rule="evenodd" d="M10.4167 6.25H39.5833C41.875 6.25 43.75 8.125 43.75 10.4167V39.5833C43.75 41.875 41.875 43.75 39.5833 43.75H10.4167C8.125 43.75 6.25 41.875 6.25 39.5833V10.4167C6.25 8.125 8.125 6.25 10.4167 6.25ZM14.5833 33.3333C14.5833 34.4792 15.5208 35.4167 16.6667 35.4167C17.8125 35.4167 18.75 34.4792 18.75 33.3333V22.9167C18.75 21.7708 17.8125 20.8333 16.6667 20.8333C15.5208 20.8333 14.5833 21.7708 14.5833 22.9167V33.3333ZM25 35.4167C23.8542 35.4167 22.9167 34.4792 22.9167 33.3333V16.6667C22.9167 15.5208 23.8542 14.5833 25 14.5833C26.1458 14.5833 27.0833 15.5208 27.0833 16.6667V33.3333C27.0833 34.4792 26.1458 35.4167 25 35.4167ZM31.25 33.3333C31.25 34.4792 32.1875 35.4167 33.3333 35.4167C34.4792 35.4167 35.4167 34.4792 35.4167 33.3333V29.1667C35.4167 28.0208 34.4792 27.0833 33.3333 27.0833C32.1875 27.0833 31.25 28.0208 31.25 29.1667V33.3333Z" fill="#C4C4C4"/>
</g>
</svg>
