<svg width="50" height="50" viewBox="0 0 50 50" fill="none" xmlns="http://www.w3.org/2000/svg">
<g id="assignment_24px">
<path id="icon/action/assignment_24px" fill-rule="evenodd" clip-rule="evenodd" d="M39.5833 8.33342H30.875C30 5.91675 27.7083 4.16675 25 4.16675C22.2917 4.16675 20 5.91675 19.125 8.33342H10.4167C8.125 8.33342 6.25 10.2084 6.25 12.5001V41.6668C6.25 43.9584 8.125 45.8334 10.4167 45.8334H39.5833C41.875 45.8334 43.75 43.9584 43.75 41.6668V12.5001C43.75 10.2084 41.875 8.33342 39.5833 8.33342ZM25 8.33346C26.1458 8.33346 27.0833 9.27096 27.0833 10.4168C27.0833 11.5626 26.1458 12.5001 25 12.5001C23.8542 12.5001 22.9167 11.5626 22.9167 10.4168C22.9167 9.27096 23.8542 8.33346 25 8.33346ZM16.6667 37.5001H27.0833C28.2292 37.5001 29.1667 36.5626 29.1667 35.4168C29.1667 34.271 28.2292 33.3335 27.0833 33.3335H16.6667C15.5208 33.3335 14.5833 34.271 14.5833 35.4168C14.5833 36.5626 15.5208 37.5001 16.6667 37.5001ZM33.3333 29.1667H16.6667C15.5208 29.1667 14.5833 28.2292 14.5833 27.0834C14.5833 25.9375 15.5208 25 16.6667 25H33.3333C34.4792 25 35.4167 25.9375 35.4167 27.0834C35.4167 28.2292 34.4792 29.1667 33.3333 29.1667ZM16.6667 20.8334H33.3333C34.4792 20.8334 35.4167 19.8959 35.4167 18.7501C35.4167 17.6042 34.4792 16.6667 33.3333 16.6667H16.6667C15.5208 16.6667 14.5833 17.6042 14.5833 18.7501C14.5833 19.8959 15.5208 20.8334 16.6667 20.8334Z" fill="#C4C4C4"/>
</g>
</svg>
